{
  "accessors": [
    {
      "bufferView": 2,
      "componentType": 5126,
      "count": 913,
      "max": [
        4.004429817199707,
        11.464059829711914,
        4.9507498741149902
      ],
      "min": [
        -4.0044498443603516,
        -10.837869644165039,
        -0.69524002075195312
      ],
      "type": "VEC3"
    },
    {
      "bufferView": 2,
      "byteOffset": 10956,
      "componentType": 5126,
      "count": 913,
      "max": [
        0.98851251602172852,
        0.99070733785629272,
        0.99998968839645386
      ],
      "min": [
        -0.98851251602172852,
        -0.99626147747039795,
        -0.99999982118606567
      ],
      "type": "VEC3"
    },
    {
      "bufferView": 3,
      "componentType": 5126,
      "count": 913,
      "max": [
        0.99994874000549316,
        0.99999988079071045,
        0.99987506866455078,
        1
      ],
      "min": [
        -0.99994874000549316,
        -0.99999833106994629,
        -0.9988868236541748,
        -1
      ],
      "type": "VEC4"
    },
    {
      "bufferView": 2,
      "byteOffset": 21912,
      "componentType": 5126,
      "count": 913,
      "max": [
        1,
        1,
        1
      ],
      "min": [
        1,
        1,
        1
      ],
      "type": "VEC3"
    },
    {
      "bufferView": 1,
      "componentType": 5126,
      "count": 913,
      "max": [
        0.99083000421524048,
        0.9995499849319458
      ],
      "min": [
        0,
        0
      ],
      "type": "VEC2"
    },
    {
      "bufferView": 0,
      "componentType": 5125,
      "count": 2712,
      "max": [
        912
      ],
      "min": [
        0
      ],
      "type": "SCALAR"
    },
    {
      "bufferView": 2,
      "byteOffset": 32868,
      "componentType": 5126,
      "count": 56,
      "max": [
        0.69999998807907104,
        1.5,
        1.4623899459838867
      ],
      "min": [
        -0.69999998807907104,
        -1.5,
        -1.4623899459838867
      ],
      "type": "VEC3"
    },
    {
      "bufferView": 2,
      "byteOffset": 33540,
      "componentType": 5126,
      "count": 56,
      "max": [
        0.66028708219528198,
        0.75101602077484131,
        0.73218894004821777
      ],
      "min": [
        -0.66028708219528198,
        -0.75101602077484131,
        -0.73218894004821777
      ],
      "type": "VEC3"
    },
    {
      "bufferView": 3,
      "byteOffset": 14608,
      "componentType": 5126,
      "count": 56,
      "max": [
        0.75101768970489502,
        0.98594099283218384,
        0.64373672008514404,
        1
      ],
      "min": [
        -0.75101608037948608,
        -0.66028410196304321,
        -0.64373672008514404,
        -1
      ],
      "type": "VEC4"
    },
    {
      "bufferView": 2,
      "byteOffset": 34212,
      "componentType": 5126,
      "count": 56,
      "max": [
        1,
        1,
        1
      ],
      "min": [
        1,
        1,
        1
      ],
      "type": "VEC3"
    },
    {
      "bufferView": 1,
      "byteOffset": 7304,
      "componentType": 5126,
      "count": 56,
      "max": [
        0.24316999316215515,
        0.23872999846935272
      ],
      "min": [
        0.0077200001105666161,
        0.0091899996623396873
      ],
      "type": "VEC2"
    },
    {
      "bufferView": 0,
      "byteOffset": 10848,
      "componentType": 5125,
      "count": 156,
      "max": [
        55
      ],
      "min": [
        0
      ],
      "type": "SCALAR"
    },
    {
      "bufferView": 2,
      "byteOffset": 34884,
      "componentType": 5126,
      "count": 56,
      "max": [
        0.69999998807907104,
        1.5,
        1.4623899459838867
      ],
      "min": [
        -0.69999998807907104,
        -1.5,
        -1.4623899459838867
      ],
      "type": "VEC3"
    },
    {
      "bufferView": 2,
      "byteOffset": 35556,
      "componentType": 5126,
      "count": 56,
      "max": [
        0.66028708219528198,
        0.75101602077484131,
        0.73218894004821777
      ],
      "min": [
        -0.66028708219528198,
        -0.75101602077484131,
        -0.73218894004821777
      ],
      "type": "VEC3"
    },
    {
      "bufferView": 3,
      "byteOffset": 15504,
      "componentType": 5126,
      "count": 56,
      "max": [
        0.75101768970489502,
        0.98594099283218384,
        0.64373672008514404,
        1
      ],
      "min": [
        -0.75101608037948608,
        -0.66028410196304321,
        -0.64373672008514404,
        -1
      ],
      "type": "VEC4"
    },
    {
      "bufferView": 2,
      "byteOffset": 36228,
      "componentType": 5126,
      "count": 56,
      "max": [
        1,
        1,
        1
      ],
      "min": [
        1,
        1,
        1
      ],
      "type": "VEC3"
    },
    {
      "bufferView": 1,
      "byteOffset": 7752,
      "componentType": 5126,
      "count": 56,
      "max": [
        0.24316999316215515,
        0.23872999846935272
      ],
      "min": [
        0.0077200001105666161,
        0.0091899996623396873
      ],
      "type": "VEC2"
    },
    {
      "bufferView": 0,
      "byteOffset": 11472,
      "componentType": 5125,
      "count": 156,
      "max": [
        55
      ],
      "min": [
        0
      ],
      "type": "SCALAR"
    },
    {
      "bufferView": 2,
      "byteOffset": 36900,
      "componentType": 5126,
      "count": 56,
      "max": [
        0.69999998807907104,
        1.5,
        1.4623899459838867
      ],
      "min": [
        -0.69999998807907104,
        -1.5,
        -1.4623899459838867
      ],
      "type": "VEC3"
    },
    {
      "bufferView": 2,
      "byteOffset": 37572,
      "componentType": 5126,
      "count": 56,
      "max": [
        0.66028708219528198,
        0.75101602077484131,
        0.73218894004821777
      ],
      "min": [
        -0.66028708219528198,
        -0.75101602077484131,
        -0.73218894004821777
      ],
      "type": "VEC3"
    },
    {
      "bufferView": 3,
      "byteOffset": 16400,
      "componentType": 5126,
      "count": 56,
      "max": [
        0.75101768970489502,
        0.98594099283218384,
        0.64373672008514404,
        1
      ],
      "min": [
        -0.75101608037948608,
        -0.66028410196304321,
        -0.64373672008514404,
        -1
      ],
      "type": "VEC4"
    },
    {
      "bufferView": 2,
      "byteOffset": 38244,
      "componentType": 5126,
      "count": 56,
      "max": [
        1,
        1,
        1
      ],
      "min": [
        1,
        1,
        1
      ],
      "type": "VEC3"
    },
    {
      "bufferView": 1,
      "byteOffset": 8200,
      "componentType": 5126,
      "count": 56,
      "max": [
        0.24316999316215515,
        0.23872999846935272
      ],
      "min": [
        0.0077200001105666161,
        0.0091899996623396873
      ],
      "type": "VEC2"
    },
    {
      "bufferView": 0,
      "byteOffset": 12096,
      "componentType": 5125,
      "count": 156,
      "max": [
        55
      ],
      "min": [
        0
      ],
      "type": "SCALAR"
    },
    {
      "bufferView": 2,
      "byteOffset": 38916,
      "componentType": 5126,
      "count": 56,
      "max": [
        0.69999998807907104,
        1.5,
        1.4623899459838867
      ],
      "min": [
        -0.69999998807907104,
        -1.5,
        -1.4623899459838867
      ],
      "type": "VEC3"
    },
    {
      "bufferView": 2,
      "byteOffset": 39588,
      "componentType": 5126,
      "count": 56,
      "max": [
        0.66028708219528198,
        0.75101602077484131,
        0.73218894004821777
      ],
      "min": [
        -0.66028708219528198,
        -0.75101602077484131,
        -0.73218894004821777
      ],
      "type": "VEC3"
    },
    {
      "bufferView": 3,
      "byteOffset": 17296,
      "componentType": 5126,
      "count": 56,
      "max": [
        0.75101768970489502,
        0.98594099283218384,
        0.64373672008514404,
        1
      ],
      "min": [
        -0.75101608037948608,
        -0.66028410196304321,
        -0.64373672008514404,
        -1
      ],
      "type": "VEC4"
    },
    {
      "bufferView": 2,
      "byteOffset": 40260,
      "componentType": 5126,
      "count": 56,
      "max": [
        1,
        1,
        1
      ],
      "min": [
        1,
        1,
        1
      ],
      "type": "VEC3"
    },
    {
      "bufferView": 1,
      "byteOffset": 8648,
      "componentType": 5126,
      "count": 56,
      "max": [
        0.24316999316215515,
        0.23872999846935272
      ],
      "min": [
        0.0077200001105666161,
        0.0091899996623396873
      ],
      "type": "VEC2"
    },
    {
      "bufferView": 0,
      "byteOffset": 12720,
      "componentType": 5125,
      "count": 156,
      "max": [
        55
      ],
      "min": [
        0
      ],
      "type": "SCALAR"
    }
  ],
  "asset": {
    "extras": {
      "author": "kikizana (https://sketchfab.com/kikizana)",
      "license": "CC-BY-4.0 (http://creativecommons.org/licenses/by/4.0/)",
      "source": "https://sketchfab.com/models/90847e49c5834cfebeb1d6f2130610fd",
      "title": "Black Rolls Royce Phantom"
    },
    "generator": "Sketchfab-3.32.3",
    "version": "2.0"
  },
  "bufferViews": [
    {
      "buffer": 0,
      "byteLength": 13344,
      "byteOffset": 0,
      "name": "floatBufferViews",
      "target": 34963
    },
    {
      "buffer": 0,
      "byteLength": 9096,
      "byteOffset": 13344,
      "byteStride": 8,
      "name": "floatBufferViews",
      "target": 34962
    },
    {
      "buffer": 0,
      "byteLength": 40932,
      "byteOffset": 22440,
      "byteStride": 12,
      "name": "floatBufferViews",
      "target": 34962
    },
    {
      "buffer": 0,
      "byteLength": 18192,
      "byteOffset": 63372,
      "byteStride": 16,
      "name": "floatBufferViews",
      "target": 34962
    }
  ],
  "buffers": [
    {
      "byteLength": 81564,
      "uri": "scene.bin"
    }
  ],
  "images": [
    {
      "uri": "textures/000000000_baseColor.png"
    }
  ],
  "materials": [
    {
      "doubleSided": true,
      "name": "000000000",
      "pbrMetallicRoughness": {
        "baseColorFactor": [
          1,
          1,
          1,
          1
        ],
        "baseColorTexture": {
          "index": 0,
          "texCoord": 0
        },
        "metallicFactor": 1,
        "roughnessFactor": 0.2395198171
      }
    }
  ],
  "meshes": [
    {
      "name": "BODY_0",
      "primitives": [
        {
          "attributes": {
            "COLOR_0": 3,
            "NORMAL": 1,
            "POSITION": 0,
            "TANGENT": 2,
            "TEXCOORD_0": 4
          },
          "indices": 5,
          "material": 0,
          "mode": 4
        }
      ]
    },
    {
      "name": "WHEEL 3_0",
      "primitives": [
        {
          "attributes": {
            "COLOR_0": 9,
            "NORMAL": 7,
            "POSITION": 6,
            "TANGENT": 8,
            "TEXCOORD_0": 10
          },
          "indices": 11,
          "material": 0,
          "mode": 4
        }
      ]
    },
    {
      "name": "WHEEL 3_0",
      "primitives": [
        {
          "attributes": {
            "COLOR_0": 15,
            "NORMAL": 13,
            "POSITION": 12,
            "TANGENT": 14,
            "TEXCOORD_0": 16
          },
          "indices": 17,
          "material": 0,
          "mode": 4
        }
      ]
    },
    {
      "name": "WHEEL 3_0",
      "primitives": [
        {
          "attributes": {
            "COLOR_0": 21,
            "NORMAL": 19,
            "POSITION": 18,
            "TANGENT": 20,
            "TEXCOORD_0": 22
          },
          "indices": 23,
          "material": 0,
          "mode": 4
        }
      ]
    },
    {
      "name": "WHEEL 3_0",
      "primitives": [
        {
          "attributes": {
            "COLOR_0": 27,
            "NORMAL": 25,
            "POSITION": 24,
            "TANGENT": 26,
            "TEXCOORD_0": 28
          },
          "indices": 29,
          "material": 0,
          "mode": 4
        }
      ]
    }
  ],
  "nodes": [
    {
      "children": [
        1
      ],
      "name": "RootNode (gltf orientation matrix)",
      "rotation": [
        -0.70710678118654746,
        -0,
        -0,
        0.70710678118654757
      ]
    },
    {
      "children": [
        2
      ],
      "name": "RootNode (model correction matrix)"
    },
    {
      "children": [
        3,
        5,
        7,
        9,
        11
      ],
      "name": "Root"
    },
    {
      "children": [
        4
      ],
      "name": "BODY"
    },
    {
      "mesh": 0,
      "name": "BODY_0"
    },
    {
      "children": [
        6
      ],
      "matrix": [
        1,
        0,
        0,
        0,
        0,
        1,
        0,
        0,
        0,
        0,
        1,
        0,
        -2.6499999999999999,
        8.0999999999999996,
        0.30000000000000004,
        1
      ],
      "name": "WHEEL 0"
    },
    {
      "mesh": 1,
      "name": "WHEEL 3_0"
    },
    {
      "children": [
        8
      ],
      "matrix": [
        1,
        0,
        0,
        0,
        0,
        1,
        0,
        0,
        0,
        0,
        1,
        0,
        2.6499999999999999,
        8.0999999999999996,
        0.30000000000000004,
        1
      ],
      "name": "WHEEL 1"
    },
    {
      "mesh": 2,
      "name": "WHEEL 3_0"
    },
    {
      "children": [
        10
      ],
      "matrix": [
        1,
        0,
        0,
        0,
        0,
        1,
        0,
        0,
        0,
        0,
        1,
        0,
        -2.6499999999999999,
        -5.6499999999999995,
        0,
        1
      ],
      "name": "WHEEL 2"
    },
    {
      "mesh": 3,
      "name": "WHEEL 3_0"
    },
    {
      "children": [
        12
      ],
      "matrix": [
        1,
        0,
        0,
        0,
        0,
        1,
        0,
        0,
        0,
        0,
        1,
        0,
        2.6499999999999999,
        -5.6499999999999995,
        0,
        1
      ],
      "name": "WHEEL 3"
    },
    {
      "mesh": 4,
      "name": "WHEEL 3_0"
    }
  ],
  "samplers": [
    {
      "magFilter": 9729,
      "minFilter": 9987,
      "wrapS": 10497,
      "wrapT": 10497
    }
  ],
  "scene": 0,
  "scenes": [
    {
      "name": "OSG_Scene",
      "nodes": [
        0
      ]
    }
  ],
  "textures": [
    {
      "sampler": 0,
      "source": 0
    }
  ]
}

