{
  "accessors": [
    {
      "bufferView": 2,
      "componentType": 5126,
      "count": 304,
      "max": [
        3.2325398921966553,
        2.1599199771881104,
        8.7917203903198242
      ],
      "min": [
        -3.4958400726318359,
        -2.4800500869750977,
        2.3512899875640869
      ],
      "type": "VEC3"
    },
    {
      "bufferView": 2,
      "byteOffset": 3648,
      "componentType": 5126,
      "count": 304,
      "max": [
        0.99754267930984497,
        0.97953510284423828,
        0.92924171686172485
      ],
      "min": [
        -0.99778014421463013,
        -0.97422349452972412,
        -0.053251639008522034
      ],
      "type": "VEC3"
    },
    {
      "bufferView": 3,
      "componentType": 5126,
      "count": 304,
      "max": [
        0.99607962369918823,
        0.9598427414894104,
        0.99799776077270508,
        1
      ],
      "min": [
        -0.99681919813156128,
        -0.87553930282592773,
        -0.98338598012924194,
        -1
      ],
      "type": "VEC4"
    },
    {
      "bufferView": 2,
      "byteOffset": 7296,
      "componentType": 5126,
      "count": 304,
      "max": [
        0.7607843279838562,
        0.7607843279838562,
        0.7607843279838562
      ],
      "min": [
        0.074509806931018829,
        0.074509806931018829,
        0.074509806931018829
      ],
      "type": "VEC3"
    },
    {
      "bufferView": 1,
      "componentType": 5126,
      "count": 304,
      "max": [
        0.88823002576828003,
        1.0136699676513672
      ],
      "min": [
        0.016569999977946281,
        0.020670000463724136
      ],
      "type": "VEC2"
    },
    {
      "bufferView": 0,
      "componentType": 5125,
      "count": 522,
      "max": [
        303
      ],
      "min": [
        0
      ],
      "type": "SCALAR"
    },
    {
      "bufferView": 2,
      "byteOffset": 10944,
      "componentType": 5126,
      "count": 128,
      "max": [
        3.5887799263000488,
        2.674109935760498,
        5.2194600105285645
      ],
      "min": [
        -3.839400053024292,
        -2.973020076751709,
        1.4980399608612061
      ],
      "type": "VEC3"
    },
    {
      "bufferView": 2,
      "byteOffset": 12480,
      "componentType": 5126,
      "count": 128,
      "max": [
        0.99661582708358765,
        0.97732001543045044,
        0.59045523405075073
      ],
      "min": [
        -0.94844681024551392,
        -0.97422349452972412,
        0.042051434516906738
      ],
      "type": "VEC3"
    },
    {
      "bufferView": 3,
      "byteOffset": 4864,
      "componentType": 5126,
      "count": 128,
      "max": [
        0.99822050333023071,
        0.90033864974975586,
        0.83628612756729126,
        1
      ],
      "min": [
        -0.99758756160736084,
        -0.93864202499389648,
        -0.88609224557876587,
        1
      ],
      "type": "VEC4"
    },
    {
      "bufferView": 2,
      "byteOffset": 14016,
      "componentType": 5126,
      "count": 128,
      "max": [
        0.87843137979507446,
        0.87843137979507446,
        0.87843137979507446
      ],
      "min": [
        0,
        0,
        0
      ],
      "type": "VEC3"
    },
    {
      "bufferView": 1,
      "byteOffset": 2432,
      "componentType": 5126,
      "count": 128,
      "max": [
        0.11507999897003174,
        0.11917000263929367
      ],
      "min": [
        0.016569999977946281,
        0.020670000463724136
      ],
      "type": "VEC2"
    },
    {
      "bufferView": 0,
      "byteOffset": 2088,
      "componentType": 5125,
      "count": 192,
      "max": [
        127
      ],
      "min": [
        0
      ],
      "type": "SCALAR"
    }
  ],
  "asset": {
    "extras": {
      "author": "kikizana (https://sketchfab.com/kikizana)",
      "license": "CC-BY-4.0 (http://creativecommons.org/licenses/by/4.0/)",
      "source": "https://sketchfab.com/models/2fca5b9556674d9694d34bb9da17386e",
      "title": "Green Ghost"
    },
    "generator": "Sketchfab-3.32.3",
    "version": "2.0"
  },
  "bufferViews": [
    {
      "buffer": 0,
      "byteLength": 2856,
      "byteOffset": 0,
      "name": "floatBufferViews",
      "target": 34963
    },
    {
      "buffer": 0,
      "byteLength": 3456,
      "byteOffset": 2856,
      "byteStride": 8,
      "name": "floatBufferViews",
      "target": 34962
    },
    {
      "buffer": 0,
      "byteLength": 15552,
      "byteOffset": 6312,
      "byteStride": 12,
      "name": "floatBufferViews",
      "target": 34962
    },
    {
      "buffer": 0,
      "byteLength": 6912,
      "byteOffset": 21864,
      "byteStride": 16,
      "name": "floatBufferViews",
      "target": 34962
    }
  ],
  "buffers": [
    {
      "byteLength": 28776,
      "uri": "scene.bin"
    }
  ],
  "images": [
    {
      "uri": "textures/000010060_baseColor.png"
    },
    {
      "uri": "textures/000000060_baseColor.png"
    }
  ],
  "materials": [
    {
      "alphaMode": "BLEND",
      "doubleSided": true,
      "name": "000000060",
      "pbrMetallicRoughness": {
        "baseColorFactor": [
          1,
          1,
          1,
          0.5
        ],
        "baseColorTexture": {
          "index": 1,
          "texCoord": 0
        },
        "metallicFactor": 0,
        "roughnessFactor": 0.59999999999999998
      }
    },
    {
      "alphaMode": "BLEND",
      "doubleSided": true,
      "emissiveFactor": [
        0,
        0,
        0
      ],
      "name": "000010060",
      "pbrMetallicRoughness": {
        "baseColorFactor": [
          1,
          1,
          1,
          0.5
        ],
        "baseColorTexture": {
          "index": 0,
          "texCoord": 0
        },
        "metallicFactor": 0,
        "roughnessFactor": 0.59999999999999998
      }
    }
  ],
  "meshes": [
    {
      "name": "BODY_0",
      "primitives": [
        {
          "attributes": {
            "COLOR_0": 3,
            "NORMAL": 1,
            "POSITION": 0,
            "TANGENT": 2,
            "TEXCOORD_0": 4
          },
          "indices": 5,
          "material": 0,
          "mode": 4
        }
      ]
    },
    {
      "name": "BODY_1",
      "primitives": [
        {
          "attributes": {
            "COLOR_0": 9,
            "NORMAL": 7,
            "POSITION": 6,
            "TANGENT": 8,
            "TEXCOORD_0": 10
          },
          "indices": 11,
          "material": 1,
          "mode": 4
        }
      ]
    }
  ],
  "nodes": [
    {
      "children": [
        1
      ],
      "name": "RootNode (gltf orientation matrix)",
      "rotation": [
        -0.70710678118654746,
        -0,
        -0,
        0.70710678118654757
      ]
    },
    {
      "children": [
        2
      ],
      "name": "RootNode (model correction matrix)"
    },
    {
      "children": [
        3
      ],
      "name": "Root"
    },
    {
      "children": [
        4,
        5
      ],
      "matrix": [
        1,
        0,
        0,
        0,
        0,
        1,
        0,
        0,
        0,
        0,
        1,
        0,
        0,
        0,
        -0.014690000000000002,
        1
      ],
      "name": "BODY"
    },
    {
      "mesh": 0,
      "name": "BODY_0"
    },
    {
      "mesh": 1,
      "name": "BODY_1"
    }
  ],
  "samplers": [
    {
      "magFilter": 9729,
      "minFilter": 9987,
      "wrapS": 10497,
      "wrapT": 10497
    }
  ],
  "scene": 0,
  "scenes": [
    {
      "name": "OSG_Scene",
      "nodes": [
        0
      ]
    }
  ],
  "textures": [
    {
      "sampler": 0,
      "source": 0
    },
    {
      "sampler": 0,
      "source": 1
    }
  ]
}

