{
  "accessors": [
    {
      "bufferView": 2,
      "componentType": 5126,
      "count": 1193,
      "max": [
        0.83194601535797119,
        0.30966800451278687,
        1.7883219718933105
      ],
      "min": [
        -0.83194601535797119,
        -0.38465100526809692,
        -0.0043080002069473267
      ],
      "type": "VEC3"
    },
    {
      "bufferView": 2,
      "byteOffset": 14316,
      "componentType": 5126,
      "count": 1193,
      "max": [
        0.99990713596343994,
        0.99984163045883179,
        0.99957579374313354
      ],
      "min": [
        -0.99990713596343994,
        -1,
        -0.99998259544372559
      ],
      "type": "VEC3"
    },
    {
      "bufferView": 3,
      "componentType": 5126,
      "count": 1193,
      "max": [
        0,
        0,
        0,
        1
      ],
      "min": [
        0,
        0,
        0,
        1
      ],
      "type": "VEC4"
    },
    {
      "bufferView": 1,
      "componentType": 5126,
      "count": 1193,
      "max": [
        0.87454801797866821,
        0.9752269983291626
      ],
      "min": [
        0.093419000506401062,
        0.46072500944137573
      ],
      "type": "VEC2"
    },
    {
      "bufferView": 0,
      "componentType": 5125,
      "count": 4794,
      "max": [
        1192
      ],
      "min": [
        0
      ],
      "type": "SCALAR"
    },
    {
      "bufferView": 2,
      "byteOffset": 28632,
      "componentType": 5126,
      "count": 174,
      "max": [
        0.13721099495887756,
        -0.093583002686500549,
        1.5640619993209839
      ],
      "min": [
        -0.12978899478912354,
        -0.22602599859237671,
        1.438101053237915
      ],
      "type": "VEC3"
    },
    {
      "bufferView": 2,
      "byteOffset": 30720,
      "componentType": 5126,
      "count": 174,
      "max": [
        1,
        0.9918900728225708,
        0.95106565952301025
      ],
      "min": [
        -1,
        -1,
        -0.95106565952301025
      ],
      "type": "VEC3"
    },
    {
      "bufferView": 3,
      "byteOffset": 19088,
      "componentType": 5126,
      "count": 174,
      "max": [
        1,
        0.97071421146392822,
        0.66846984624862671,
        1
      ],
      "min": [
        0,
        -0.97836178541183472,
        -0.99994510412216187,
        -1
      ],
      "type": "VEC4"
    },
    {
      "bufferView": 1,
      "byteOffset": 9544,
      "componentType": 5126,
      "count": 174,
      "max": [
        0.88951897621154785,
        0.85353797674179077
      ],
      "min": [
        0.11048100143671036,
        0.14646099507808685
      ],
      "type": "VEC2"
    },
    {
      "bufferView": 0,
      "byteOffset": 19176,
      "componentType": 5125,
      "count": 972,
      "max": [
        173
      ],
      "min": [
        0
      ],
      "type": "SCALAR"
    },
    {
      "bufferView": 2,
      "byteOffset": 32808,
      "componentType": 5126,
      "count": 10,
      "max": [
        0.097833998501300812,
        -0.11235599964857101,
        1.2389689683914185
      ],
      "min": [
        -0.097833998501300812,
        -0.19939400255680084,
        0.97783899307250977
      ],
      "type": "VEC3"
    },
    {
      "bufferView": 2,
      "byteOffset": 32928,
      "componentType": 5126,
      "count": 10,
      "max": [
        0.63448727130889893,
        -0.77288442850112915,
        0.39581340551376343
      ],
      "min": [
        -0.63448727130889893,
        -0.99925488233566284,
        -0.16589269042015076
      ],
      "type": "VEC3"
    },
    {
      "bufferView": 3,
      "byteOffset": 21872,
      "componentType": 5126,
      "count": 10,
      "max": [
        0.92530703544616699,
        0.62855929136276245,
        0.99925488233566284,
        1
      ],
      "min": [
        -0.92530703544616699,
        0.038598261773586273,
        0.0021052386146038771,
        -1
      ],
      "type": "VEC4"
    },
    {
      "bufferView": 1,
      "byteOffset": 10936,
      "componentType": 5126,
      "count": 10,
      "max": [
        1,
        1.0215500593185425
      ],
      "min": [
        0.5,
        0.036189001053571701
      ],
      "type": "VEC2"
    },
    {
      "bufferView": 0,
      "byteOffset": 23064,
      "componentType": 5125,
      "count": 24,
      "max": [
        9
      ],
      "min": [
        0
      ],
      "type": "SCALAR"
    }
  ],
  "asset": {
    "extras": {
      "author": "Oisin1 (https://sketchfab.com/Oisin1)",
      "license": "CC-BY-4.0 (http://creativecommons.org/licenses/by/4.0/)",
      "source": "https://sketchfab.com/models/68a96108de8f42899cd1cee22f230452",
      "title": "The Simpsons Hit & Run - Abraham Simpson"
    },
    "generator": "Sketchfab-3.22.13",
    "version": "2.0"
  },
  "bufferViews": [
    {
      "buffer": 0,
      "byteLength": 23160,
      "byteOffset": 0,
      "name": "floatBufferViews",
      "target": 34963
    },
    {
      "buffer": 0,
      "byteLength": 11016,
      "byteOffset": 23160,
      "byteStride": 8,
      "name": "floatBufferViews",
      "target": 34962
    },
    {
      "buffer": 0,
      "byteLength": 33048,
      "byteOffset": 34176,
      "byteStride": 12,
      "name": "floatBufferViews",
      "target": 34962
    },
    {
      "buffer": 0,
      "byteLength": 22032,
      "byteOffset": 67224,
      "byteStride": 16,
      "name": "floatBufferViews",
      "target": 34962
    }
  ],
  "buffers": [
    {
      "byteLength": 89256,
      "uri": "scene.bin"
    }
  ],
  "images": [
    {
      "uri": "textures/char_swatches_lit_m_baseColor.png"
    },
    {
      "uri": "textures/eyeball_m_baseColor.png"
    },
    {
      "uri": "textures/tie_m_baseColor.png"
    }
  ],
  "materials": [
    {
      "doubleSided": true,
      "emissiveFactor": [
        0,
        0,
        0
      ],
      "name": "char_swatches_lit_m",
      "pbrMetallicRoughness": {
        "baseColorFactor": [
          1,
          1,
          1,
          1
        ],
        "baseColorTexture": {
          "index": 0,
          "texCoord": 0
        },
        "metallicFactor": 0,
        "roughnessFactor": 0.95824404740000002
      }
    },
    {
      "doubleSided": true,
      "emissiveFactor": [
        0,
        0,
        0
      ],
      "name": "eyeball_m",
      "pbrMetallicRoughness": {
        "baseColorFactor": [
          1,
          1,
          1,
          1
        ],
        "baseColorTexture": {
          "index": 1,
          "texCoord": 0
        },
        "metallicFactor": 0,
        "roughnessFactor": 0.95824404740000002
      }
    },
    {
      "doubleSided": true,
      "emissiveFactor": [
        0,
        0,
        0
      ],
      "name": "tie_m",
      "pbrMetallicRoughness": {
        "baseColorFactor": [
          1,
          1,
          1,
          1
        ],
        "baseColorTexture": {
          "index": 2,
          "texCoord": 0
        },
        "metallicFactor": 0,
        "roughnessFactor": 0.95824404740000002
      }
    }
  ],
  "meshes": [
    {
      "primitives": [
        {
          "attributes": {
            "NORMAL": 1,
            "POSITION": 0,
            "TANGENT": 2,
            "TEXCOORD_0": 3
          },
          "indices": 4,
          "material": 0,
          "mode": 4
        }
      ]
    },
    {
      "primitives": [
        {
          "attributes": {
            "NORMAL": 6,
            "POSITION": 5,
            "TANGENT": 7,
            "TEXCOORD_0": 8
          },
          "indices": 9,
          "material": 1,
          "mode": 4
        }
      ]
    },
    {
      "primitives": [
        {
          "attributes": {
            "NORMAL": 11,
            "POSITION": 10,
            "TANGENT": 12,
            "TEXCOORD_0": 13
          },
          "indices": 14,
          "material": 2,
          "mode": 4
        }
      ]
    }
  ],
  "nodes": [
    {
      "children": [
        1
      ],
      "name": "RootNode (gltf orientation matrix)",
      "rotation": [
        -0.70710678118654746,
        -0,
        -0,
        0.70710678118654757
      ]
    },
    {
      "children": [
        2
      ],
      "name": "RootNode (model correction matrix)"
    },
    {
      "children": [
        3,
        4,
        5
      ],
      "name": "Abe.obj.cleaner.materialmerger.gles"
    },
    {
      "mesh": 0,
      "name": ""
    },
    {
      "mesh": 1,
      "name": ""
    },
    {
      "mesh": 2,
      "name": ""
    }
  ],
  "samplers": [
    {
      "magFilter": 9729,
      "minFilter": 9987,
      "wrapS": 10497,
      "wrapT": 10497
    }
  ],
  "scene": 0,
  "scenes": [
    {
      "name": "OSG_Scene",
      "nodes": [
        0
      ]
    }
  ],
  "textures": [
    {
      "sampler": 0,
      "source": 0
    },
    {
      "sampler": 0,
      "source": 1
    },
    {
      "sampler": 0,
      "source": 2
    }
  ]
}

