{
  "accessors": [
    {
      "bufferView": 2,
      "componentType": 5126,
      "count": 1682,
      "max": [
        4,
        6.8381400108337402,
        6.0039901733398438
      ],
      "min": [
        -4,
        -7.8471899032592773,
        -0.039999999105930328
      ],
      "type": "VEC3"
    },
    {
      "bufferView": 2,
      "byteOffset": 20184,
      "componentType": 5126,
      "count": 1682,
      "max": [
        1,
        1,
        1
      ],
      "min": [
        -1,
        -1,
        -1
      ],
      "type": "VEC3"
    },
    {
      "bufferView": 3,
      "componentType": 5126,
      "count": 1682,
      "max": [
        1,
        1,
        1,
        1
      ],
      "min": [
        -1,
        -1,
        -0.9983748197555542,
        -1
      ],
      "type": "VEC4"
    },
    {
      "bufferView": 2,
      "byteOffset": 40368,
      "componentType": 5126,
      "count": 1682,
      "max": [
        1,
        1,
        1
      ],
      "min": [
        1,
        1,
        1
      ],
      "type": "VEC3"
    },
    {
      "bufferView": 1,
      "componentType": 5126,
      "count": 1682,
      "max": [
        0.99036997556686401,
        0.99088001251220703
      ],
      "min": [
        0,
        0
      ],
      "type": "VEC2"
    },
    {
      "bufferView": 0,
      "componentType": 5125,
      "count": 5394,
      "max": [
        1681
      ],
      "min": [
        0
      ],
      "type": "SCALAR"
    },
    {
      "bufferView": 2,
      "byteOffset": 60552,
      "componentType": 5126,
      "count": 648,
      "max": [
        0.80000001192092896,
        1.9078999757766724,
        1.9078999757766724
      ],
      "min": [
        -0.80000001192092896,
        -1.9078999757766724,
        -1.9078999757766724
      ],
      "type": "VEC3"
    },
    {
      "bufferView": 2,
      "byteOffset": 68328,
      "componentType": 5126,
      "count": 648,
      "max": [
        0.97042810916900635,
        1,
        1
      ],
      "min": [
        -1,
        -1,
        -1
      ],
      "type": "VEC3"
    },
    {
      "bufferView": 3,
      "byteOffset": 26912,
      "componentType": 5126,
      "count": 648,
      "max": [
        1,
        1,
        0.98464673757553101,
        1
      ],
      "min": [
        -0.99992001056671143,
        -0.66845613718032837,
        -0.98464673757553101,
        -1
      ],
      "type": "VEC4"
    },
    {
      "bufferView": 2,
      "byteOffset": 76104,
      "componentType": 5126,
      "count": 648,
      "max": [
        1,
        1,
        1
      ],
      "min": [
        1,
        1,
        1
      ],
      "type": "VEC3"
    },
    {
      "bufferView": 1,
      "byteOffset": 13456,
      "componentType": 5126,
      "count": 648,
      "max": [
        0.42019999027252197,
        0.4885999858379364
      ],
      "min": [
        0,
        0
      ],
      "type": "VEC2"
    },
    {
      "bufferView": 0,
      "byteOffset": 21576,
      "componentType": 5125,
      "count": 2724,
      "max": [
        647
      ],
      "min": [
        0
      ],
      "type": "SCALAR"
    },
    {
      "bufferView": 2,
      "byteOffset": 83880,
      "componentType": 5126,
      "count": 648,
      "max": [
        0.80000001192092896,
        1.9078999757766724,
        1.9078999757766724
      ],
      "min": [
        -0.80000001192092896,
        -1.9078999757766724,
        -1.9078999757766724
      ],
      "type": "VEC3"
    },
    {
      "bufferView": 2,
      "byteOffset": 91656,
      "componentType": 5126,
      "count": 648,
      "max": [
        0.97042810916900635,
        1,
        1
      ],
      "min": [
        -1,
        -1,
        -1
      ],
      "type": "VEC3"
    },
    {
      "bufferView": 3,
      "byteOffset": 37280,
      "componentType": 5126,
      "count": 648,
      "max": [
        1,
        1,
        0.98464673757553101,
        1
      ],
      "min": [
        -0.99992001056671143,
        -0.66845613718032837,
        -0.98464673757553101,
        -1
      ],
      "type": "VEC4"
    },
    {
      "bufferView": 2,
      "byteOffset": 99432,
      "componentType": 5126,
      "count": 648,
      "max": [
        1,
        1,
        1
      ],
      "min": [
        1,
        1,
        1
      ],
      "type": "VEC3"
    },
    {
      "bufferView": 1,
      "byteOffset": 18640,
      "componentType": 5126,
      "count": 648,
      "max": [
        0.42019999027252197,
        0.4885999858379364
      ],
      "min": [
        0,
        0
      ],
      "type": "VEC2"
    },
    {
      "bufferView": 0,
      "byteOffset": 32472,
      "componentType": 5125,
      "count": 2724,
      "max": [
        647
      ],
      "min": [
        0
      ],
      "type": "SCALAR"
    },
    {
      "bufferView": 2,
      "byteOffset": 107208,
      "componentType": 5126,
      "count": 648,
      "max": [
        0.80000001192092896,
        1.9078999757766724,
        1.9078999757766724
      ],
      "min": [
        -0.80000001192092896,
        -1.9078999757766724,
        -1.9078999757766724
      ],
      "type": "VEC3"
    },
    {
      "bufferView": 2,
      "byteOffset": 114984,
      "componentType": 5126,
      "count": 648,
      "max": [
        0.97042810916900635,
        1,
        1
      ],
      "min": [
        -1,
        -1,
        -1
      ],
      "type": "VEC3"
    },
    {
      "bufferView": 3,
      "byteOffset": 47648,
      "componentType": 5126,
      "count": 648,
      "max": [
        1,
        1,
        0.98464673757553101,
        1
      ],
      "min": [
        -0.99992001056671143,
        -0.66845613718032837,
        -0.98464673757553101,
        -1
      ],
      "type": "VEC4"
    },
    {
      "bufferView": 2,
      "byteOffset": 122760,
      "componentType": 5126,
      "count": 648,
      "max": [
        1,
        1,
        1
      ],
      "min": [
        1,
        1,
        1
      ],
      "type": "VEC3"
    },
    {
      "bufferView": 1,
      "byteOffset": 23824,
      "componentType": 5126,
      "count": 648,
      "max": [
        0.42019999027252197,
        0.4885999858379364
      ],
      "min": [
        0,
        0
      ],
      "type": "VEC2"
    },
    {
      "bufferView": 0,
      "byteOffset": 43368,
      "componentType": 5125,
      "count": 2724,
      "max": [
        647
      ],
      "min": [
        0
      ],
      "type": "SCALAR"
    },
    {
      "bufferView": 2,
      "byteOffset": 130536,
      "componentType": 5126,
      "count": 648,
      "max": [
        0.80000001192092896,
        1.9078999757766724,
        1.9078999757766724
      ],
      "min": [
        -0.80000001192092896,
        -1.9078999757766724,
        -1.9078999757766724
      ],
      "type": "VEC3"
    },
    {
      "bufferView": 2,
      "byteOffset": 138312,
      "componentType": 5126,
      "count": 648,
      "max": [
        0.97042810916900635,
        1,
        1
      ],
      "min": [
        -1,
        -1,
        -1
      ],
      "type": "VEC3"
    },
    {
      "bufferView": 3,
      "byteOffset": 58016,
      "componentType": 5126,
      "count": 648,
      "max": [
        1,
        1,
        0.98464673757553101,
        1
      ],
      "min": [
        -0.99992001056671143,
        -0.66845613718032837,
        -0.98464673757553101,
        -1
      ],
      "type": "VEC4"
    },
    {
      "bufferView": 2,
      "byteOffset": 146088,
      "componentType": 5126,
      "count": 648,
      "max": [
        1,
        1,
        1
      ],
      "min": [
        1,
        1,
        1
      ],
      "type": "VEC3"
    },
    {
      "bufferView": 1,
      "byteOffset": 29008,
      "componentType": 5126,
      "count": 648,
      "max": [
        0.42019999027252197,
        0.4885999858379364
      ],
      "min": [
        0,
        0
      ],
      "type": "VEC2"
    },
    {
      "bufferView": 0,
      "byteOffset": 54264,
      "componentType": 5125,
      "count": 2724,
      "max": [
        647
      ],
      "min": [
        0
      ],
      "type": "SCALAR"
    },
    {
      "bufferView": 2,
      "byteOffset": 153864,
      "componentType": 5126,
      "count": 24,
      "max": [
        0.12037000060081482,
        0.10372000187635422,
        0.30000001192092896
      ],
      "min": [
        -0.059629999101161957,
        -0.10412000119686127,
        0
      ],
      "type": "VEC3"
    },
    {
      "bufferView": 2,
      "byteOffset": 154152,
      "componentType": 5126,
      "count": 24,
      "max": [
        1,
        0.86603271961212158,
        0
      ],
      "min": [
        -0.49998733401298523,
        -0.86603271961212158,
        0
      ],
      "type": "VEC3"
    },
    {
      "bufferView": 3,
      "byteOffset": 68384,
      "componentType": 5126,
      "count": 24,
      "max": [
        0.68639057874679565,
        0.39627444744110107,
        0.60980921983718872,
        1
      ],
      "min": [
        -0.68639057874679565,
        -0.79254847764968872,
        0,
        1
      ],
      "type": "VEC4"
    },
    {
      "bufferView": 2,
      "byteOffset": 154440,
      "componentType": 5126,
      "count": 24,
      "max": [
        1,
        1,
        1
      ],
      "min": [
        1,
        1,
        1
      ],
      "type": "VEC3"
    },
    {
      "bufferView": 1,
      "byteOffset": 34192,
      "componentType": 5126,
      "count": 24,
      "max": [
        0.87914997339248657,
        0.23285000026226044
      ],
      "min": [
        0.87231999635696411,
        0.227960005402565
      ],
      "type": "VEC2"
    },
    {
      "bufferView": 0,
      "byteOffset": 65160,
      "componentType": 5125,
      "count": 54,
      "max": [
        23
      ],
      "min": [
        0
      ],
      "type": "SCALAR"
    },
    {
      "bufferView": 2,
      "byteOffset": 154728,
      "componentType": 5126,
      "count": 30,
      "max": [
        0.148499995470047,
        0.14839999377727509,
        0.10000000149011612
      ],
      "min": [
        -0.15150000154972076,
        -0.15160000324249268,
        -0
      ],
      "type": "VEC3"
    },
    {
      "bufferView": 2,
      "byteOffset": 155088,
      "componentType": 5126,
      "count": 30,
      "max": [
        1,
        0.86603271961212158,
        0.57735031843185425
      ],
      "min": [
        -0.57735031843185425,
        -0.86603271961212158,
        -0.57735031843185425
      ],
      "type": "VEC3"
    },
    {
      "bufferView": 3,
      "byteOffset": 68768,
      "componentType": 5126,
      "count": 30,
      "max": [
        0.85977268218994141,
        0.81078404188156128,
        0.58094865083694458,
        1
      ],
      "min": [
        -0.80833160877227783,
        -0.99277067184448242,
        -0.64349228143692017,
        1
      ],
      "type": "VEC4"
    },
    {
      "bufferView": 2,
      "byteOffset": 155448,
      "componentType": 5126,
      "count": 30,
      "max": [
        1,
        1,
        1
      ],
      "min": [
        0,
        0,
        0
      ],
      "type": "VEC3"
    },
    {
      "bufferView": 1,
      "byteOffset": 34384,
      "componentType": 5126,
      "count": 30,
      "max": [
        0.823170006275177,
        0.38078999519348145
      ],
      "min": [
        0.10446000099182129,
        0.026009999215602875
      ],
      "type": "VEC2"
    },
    {
      "bufferView": 0,
      "byteOffset": 65376,
      "componentType": 5125,
      "count": 54,
      "max": [
        29
      ],
      "min": [
        0
      ],
      "type": "SCALAR"
    }
  ],
  "asset": {
    "extras": {
      "author": "kikizana (https://sketchfab.com/kikizana)",
      "license": "CC-BY-4.0 (http://creativecommons.org/licenses/by/4.0/)",
      "source": "https://sketchfab.com/models/4bd19f180b654d629ff729809cbb8a7a",
      "title": "RC Toy Story"
    },
    "generator": "Sketchfab-3.32.3",
    "version": "2.0"
  },
  "bufferViews": [
    {
      "buffer": 0,
      "byteLength": 65592,
      "byteOffset": 0,
      "name": "floatBufferViews",
      "target": 34963
    },
    {
      "buffer": 0,
      "byteLength": 34624,
      "byteOffset": 65592,
      "byteStride": 8,
      "name": "floatBufferViews",
      "target": 34962
    },
    {
      "buffer": 0,
      "byteLength": 155808,
      "byteOffset": 100216,
      "byteStride": 12,
      "name": "floatBufferViews",
      "target": 34962
    },
    {
      "buffer": 0,
      "byteLength": 69248,
      "byteOffset": 256024,
      "byteStride": 16,
      "name": "floatBufferViews",
      "target": 34962
    }
  ],
  "buffers": [
    {
      "byteLength": 325272,
      "uri": "scene.bin"
    }
  ],
  "images": [
    {
      "uri": "textures/000000000_baseColor.png"
    }
  ],
  "materials": [
    {
      "doubleSided": true,
      "emissiveFactor": [
        0,
        0,
        0
      ],
      "name": "000000000",
      "pbrMetallicRoughness": {
        "baseColorFactor": [
          1,
          1,
          1,
          1
        ],
        "baseColorTexture": {
          "index": 0,
          "texCoord": 0
        },
        "metallicFactor": 0,
        "roughnessFactor": 0.59999999999999998
      }
    }
  ],
  "meshes": [
    {
      "name": "BODY_0",
      "primitives": [
        {
          "attributes": {
            "COLOR_0": 3,
            "NORMAL": 1,
            "POSITION": 0,
            "TANGENT": 2,
            "TEXCOORD_0": 4
          },
          "indices": 5,
          "material": 0,
          "mode": 4
        }
      ]
    },
    {
      "name": "WHEEL 3_0",
      "primitives": [
        {
          "attributes": {
            "COLOR_0": 9,
            "NORMAL": 7,
            "POSITION": 6,
            "TANGENT": 8,
            "TEXCOORD_0": 10
          },
          "indices": 11,
          "material": 0,
          "mode": 4
        }
      ]
    },
    {
      "name": "WHEEL 3_0",
      "primitives": [
        {
          "attributes": {
            "COLOR_0": 15,
            "NORMAL": 13,
            "POSITION": 12,
            "TANGENT": 14,
            "TEXCOORD_0": 16
          },
          "indices": 17,
          "material": 0,
          "mode": 4
        }
      ]
    },
    {
      "name": "WHEEL 3_0",
      "primitives": [
        {
          "attributes": {
            "COLOR_0": 21,
            "NORMAL": 19,
            "POSITION": 18,
            "TANGENT": 20,
            "TEXCOORD_0": 22
          },
          "indices": 23,
          "material": 0,
          "mode": 4
        }
      ]
    },
    {
      "name": "WHEEL 3_0",
      "primitives": [
        {
          "attributes": {
            "COLOR_0": 27,
            "NORMAL": 25,
            "POSITION": 24,
            "TANGENT": 26,
            "TEXCOORD_0": 28
          },
          "indices": 29,
          "material": 0,
          "mode": 4
        }
      ]
    },
    {
      "name": "AERIAL_0",
      "primitives": [
        {
          "attributes": {
            "COLOR_0": 33,
            "NORMAL": 31,
            "POSITION": 30,
            "TANGENT": 32,
            "TEXCOORD_0": 34
          },
          "indices": 35,
          "material": 0,
          "mode": 4
        }
      ]
    },
    {
      "name": "AERIAL_T_0",
      "primitives": [
        {
          "attributes": {
            "COLOR_0": 39,
            "NORMAL": 37,
            "POSITION": 36,
            "TANGENT": 38,
            "TEXCOORD_0": 40
          },
          "indices": 41,
          "material": 0,
          "mode": 4
        }
      ]
    }
  ],
  "nodes": [
    {
      "children": [
        1
      ],
      "name": "RootNode (gltf orientation matrix)",
      "rotation": [
        -0.70710678118654746,
        -0,
        -0,
        0.70710678118654757
      ]
    },
    {
      "children": [
        2
      ],
      "name": "RootNode (model correction matrix)"
    },
    {
      "children": [
        3,
        5,
        7,
        9,
        11,
        13,
        15
      ],
      "name": "Root"
    },
    {
      "children": [
        4
      ],
      "name": "BODY"
    },
    {
      "mesh": 0,
      "name": "BODY_0"
    },
    {
      "children": [
        6
      ],
      "matrix": [
        1,
        0,
        0,
        0,
        0,
        1,
        0,
        0,
        0,
        0,
        1,
        0,
        -3.1499999999999999,
        3.25,
        0.45000000000000001,
        1
      ],
      "name": "WHEEL 0"
    },
    {
      "mesh": 1,
      "name": "WHEEL 3_0"
    },
    {
      "children": [
        8
      ],
      "matrix": [
        1,
        0,
        0,
        0,
        0,
        1,
        0,
        0,
        0,
        0,
        1,
        0,
        3.1499999999999999,
        3.25,
        0.45000000000000001,
        1
      ],
      "name": "WHEEL 1"
    },
    {
      "mesh": 2,
      "name": "WHEEL 3_0"
    },
    {
      "children": [
        10
      ],
      "matrix": [
        1,
        0,
        0,
        0,
        0,
        1,
        0,
        0,
        0,
        0,
        1,
        0,
        -3.25,
        -4.9500000000000002,
        0.45000000000000001,
        1
      ],
      "name": "WHEEL 2"
    },
    {
      "mesh": 3,
      "name": "WHEEL 3_0"
    },
    {
      "children": [
        12
      ],
      "matrix": [
        1,
        0,
        0,
        0,
        0,
        1,
        0,
        0,
        0,
        0,
        1,
        0,
        3.25,
        -4.9500000000000002,
        0.45000000000000001,
        1
      ],
      "name": "WHEEL 3"
    },
    {
      "mesh": 4,
      "name": "WHEEL 3_0"
    },
    {
      "children": [
        14
      ],
      "matrix": [
        -1,
        0,
        -0,
        0,
        0,
        1,
        0,
        0,
        0,
        0,
        -17.5,
        0,
        2.3999999999999999,
        -1.8999999999999999,
        7.3499999999999996,
        1
      ],
      "name": "AERIAL"
    },
    {
      "mesh": 5,
      "name": "AERIAL_0"
    },
    {
      "children": [
        16
      ],
      "matrix": [
        -1,
        0,
        -0,
        0,
        0,
        1,
        0,
        0,
        0,
        0,
        -17.5,
        0,
        2.3999999999999999,
        -1.8999999999999999,
        9.0999999999999996,
        1
      ],
      "name": "AERIAL_T"
    },
    {
      "mesh": 6,
      "name": "AERIAL_T_0"
    }
  ],
  "samplers": [
    {
      "magFilter": 9729,
      "minFilter": 9987,
      "wrapS": 10497,
      "wrapT": 10497
    }
  ],
  "scene": 0,
  "scenes": [
    {
      "name": "OSG_Scene",
      "nodes": [
        0
      ]
    }
  ],
  "textures": [
    {
      "sampler": 0,
      "source": 0
    }
  ]
}

