{
  "accessors": [
    {
      "bufferView": 2,
      "componentType": 5126,
      "count": 555,
      "max": [
        4.4625000953674316,
        7.2750000953674316,
        2.8125
      ],
      "min": [
        -4.4625000953674316,
        -5.0625,
        -0.01793999969959259
      ],
      "type": "VEC3"
    },
    {
      "bufferView": 2,
      "byteOffset": 6660,
      "componentType": 5126,
      "count": 555,
      "max": [
        1,
        0.96366757154464722,
        0.99983179569244385
      ],
      "min": [
        -1,
        -0.90454131364822388,
        -0.90361607074737549
      ],
      "type": "VEC3"
    },
    {
      "bufferView": 3,
      "componentType": 5126,
      "count": 555,
      "max": [
        0.99678510427474976,
        1,
        0.8412548303604126,
        1
      ],
      "min": [
        -1,
        -1,
        -0.99999785423278809,
        -1
      ],
      "type": "VEC4"
    },
    {
      "bufferView": 2,
      "byteOffset": 13320,
      "componentType": 5126,
      "count": 555,
      "max": [
        1,
        1,
        1
      ],
      "min": [
        1,
        1,
        1
      ],
      "type": "VEC3"
    },
    {
      "bufferView": 1,
      "componentType": 5126,
      "count": 555,
      "max": [
        0.98632997274398804,
        0.98827999830245972
      ],
      "min": [
        0,
        0
      ],
      "type": "VEC2"
    },
    {
      "bufferView": 0,
      "componentType": 5125,
      "count": 1686,
      "max": [
        554
      ],
      "min": [
        0
      ],
      "type": "SCALAR"
    },
    {
      "bufferView": 2,
      "byteOffset": 19980,
      "componentType": 5126,
      "count": 24,
      "max": [
        0.060369998216629028,
        0.051759999245405197,
        0.30000001192092896
      ],
      "min": [
        -0.029629999771714211,
        -0.052159998565912247,
        0
      ],
      "type": "VEC3"
    },
    {
      "bufferView": 2,
      "byteOffset": 20268,
      "componentType": 5126,
      "count": 24,
      "max": [
        1,
        0.86603271961212158,
        0
      ],
      "min": [
        -0.49998733401298523,
        -0.86603271961212158,
        0
      ],
      "type": "VEC3"
    },
    {
      "bufferView": 3,
      "byteOffset": 8880,
      "componentType": 5126,
      "count": 24,
      "max": [
        0.4712359607219696,
        0.27205902338027954,
        0.83901697397232056,
        1
      ],
      "min": [
        -0.4712359607219696,
        -0.5441054105758667,
        0,
        1
      ],
      "type": "VEC4"
    },
    {
      "bufferView": 2,
      "byteOffset": 20556,
      "componentType": 5126,
      "count": 24,
      "max": [
        1,
        1,
        1
      ],
      "min": [
        1,
        1,
        1
      ],
      "type": "VEC3"
    },
    {
      "bufferView": 1,
      "byteOffset": 4440,
      "componentType": 5126,
      "count": 24,
      "max": [
        0.62525999546051025,
        0.029529999941587448
      ],
      "min": [
        0.61843001842498779,
        0.024650000035762787
      ],
      "type": "VEC2"
    },
    {
      "bufferView": 0,
      "byteOffset": 6744,
      "componentType": 5125,
      "count": 54,
      "max": [
        23
      ],
      "min": [
        0
      ],
      "type": "SCALAR"
    },
    {
      "bufferView": 2,
      "byteOffset": 20844,
      "componentType": 5126,
      "count": 30,
      "max": [
        0.074249997735023499,
        0.074199996888637543,
        0.10000000149011612
      ],
      "min": [
        -0.075750000774860382,
        -0.075800001621246338,
        -0
      ],
      "type": "VEC3"
    },
    {
      "bufferView": 2,
      "byteOffset": 21204,
      "componentType": 5126,
      "count": 30,
      "max": [
        1,
        0.86603271961212158,
        0.57735031843185425
      ],
      "min": [
        -0.57735031843185425,
        -0.86603271961212158,
        -0.57735031843185425
      ],
      "type": "VEC3"
    },
    {
      "bufferView": 3,
      "byteOffset": 9264,
      "componentType": 5126,
      "count": 30,
      "max": [
        0.84177672863006592,
        0.81192260980606079,
        0.7879873514175415,
        1
      ],
      "min": [
        -0.6869964599609375,
        -0.97198808193206787,
        -0.7879873514175415,
        1
      ],
      "type": "VEC4"
    },
    {
      "bufferView": 2,
      "byteOffset": 21564,
      "componentType": 5126,
      "count": 30,
      "max": [
        1,
        1,
        1
      ],
      "min": [
        0,
        0,
        0
      ],
      "type": "VEC3"
    },
    {
      "bufferView": 1,
      "byteOffset": 4632,
      "componentType": 5126,
      "count": 30,
      "max": [
        0.91308999061584473,
        0.052409999072551727
      ],
      "min": [
        0.61734998226165771,
        0.022879999130964279
      ],
      "type": "VEC2"
    },
    {
      "bufferView": 0,
      "byteOffset": 6960,
      "componentType": 5125,
      "count": 54,
      "max": [
        29
      ],
      "min": [
        0
      ],
      "type": "SCALAR"
    }
  ],
  "asset": {
    "extras": {
      "author": "kikizana (https://sketchfab.com/kikizana)",
      "license": "CC-BY-4.0 (http://creativecommons.org/licenses/by/4.0/)",
      "source": "https://sketchfab.com/models/2dceba1c17ad48ec8948375f5e7319c4",
      "title": "Blue Falcon"
    },
    "generator": "Sketchfab-3.32.3",
    "version": "2.0"
  },
  "bufferViews": [
    {
      "buffer": 0,
      "byteLength": 7176,
      "byteOffset": 0,
      "name": "floatBufferViews",
      "target": 34963
    },
    {
      "buffer": 0,
      "byteLength": 4872,
      "byteOffset": 7176,
      "byteStride": 8,
      "name": "floatBufferViews",
      "target": 34962
    },
    {
      "buffer": 0,
      "byteLength": 21924,
      "byteOffset": 12048,
      "byteStride": 12,
      "name": "floatBufferViews",
      "target": 34962
    },
    {
      "buffer": 0,
      "byteLength": 9744,
      "byteOffset": 33972,
      "byteStride": 16,
      "name": "floatBufferViews",
      "target": 34962
    }
  ],
  "buffers": [
    {
      "byteLength": 43716,
      "uri": "scene.bin"
    }
  ],
  "images": [
    {
      "uri": "textures/000000000_metallicRoughness.png"
    },
    {
      "uri": "textures/000000000_baseColor.png"
    }
  ],
  "materials": [
    {
      "doubleSided": true,
      "emissiveFactor": [
        0,
        0,
        0
      ],
      "name": "000000000",
      "pbrMetallicRoughness": {
        "baseColorFactor": [
          1,
          1,
          1,
          1
        ],
        "baseColorTexture": {
          "index": 1,
          "texCoord": 0
        },
        "metallicFactor": 1,
        "metallicRoughnessTexture": {
          "index": 0,
          "texCoord": 0
        },
        "roughnessFactor": 1
      }
    }
  ],
  "meshes": [
    {
      "name": "BODY_0",
      "primitives": [
        {
          "attributes": {
            "COLOR_0": 3,
            "NORMAL": 1,
            "POSITION": 0,
            "TANGENT": 2,
            "TEXCOORD_0": 4
          },
          "indices": 5,
          "material": 0,
          "mode": 4
        }
      ]
    },
    {
      "name": "AERIAL_0",
      "primitives": [
        {
          "attributes": {
            "COLOR_0": 9,
            "NORMAL": 7,
            "POSITION": 6,
            "TANGENT": 8,
            "TEXCOORD_0": 10
          },
          "indices": 11,
          "material": 0,
          "mode": 4
        }
      ]
    },
    {
      "name": "AERIAL_T_0",
      "primitives": [
        {
          "attributes": {
            "COLOR_0": 15,
            "NORMAL": 13,
            "POSITION": 12,
            "TANGENT": 14,
            "TEXCOORD_0": 16
          },
          "indices": 17,
          "material": 0,
          "mode": 4
        }
      ]
    }
  ],
  "nodes": [
    {
      "children": [
        1
      ],
      "name": "RootNode (gltf orientation matrix)",
      "rotation": [
        -0.70710678118654746,
        -0,
        -0,
        0.70710678118654757
      ]
    },
    {
      "children": [
        2
      ],
      "name": "RootNode (model correction matrix)"
    },
    {
      "children": [
        3,
        5,
        7
      ],
      "name": "Root"
    },
    {
      "children": [
        4
      ],
      "name": "BODY"
    },
    {
      "mesh": 0,
      "name": "BODY_0"
    },
    {
      "children": [
        6
      ],
      "matrix": [
        -1,
        0,
        -0,
        0,
        0,
        1,
        0,
        0,
        0,
        0,
        -8.5,
        0,
        2.2999999999999998,
        -4.5,
        3.5499999999999998,
        1
      ],
      "name": "AERIAL"
    },
    {
      "mesh": 1,
      "name": "AERIAL_0"
    },
    {
      "children": [
        8
      ],
      "matrix": [
        -1,
        0,
        -0,
        0,
        0,
        1,
        0,
        0,
        0,
        0,
        -8.5,
        0,
        2.2999999999999998,
        -4.5,
        4.4000000000000004,
        1
      ],
      "name": "AERIAL_T"
    },
    {
      "mesh": 2,
      "name": "AERIAL_T_0"
    }
  ],
  "samplers": [
    {
      "magFilter": 9729,
      "minFilter": 9987,
      "wrapS": 10497,
      "wrapT": 10497
    }
  ],
  "scene": 0,
  "scenes": [
    {
      "name": "OSG_Scene",
      "nodes": [
        0
      ]
    }
  ],
  "textures": [
    {
      "sampler": 0,
      "source": 0
    },
    {
      "sampler": 0,
      "source": 1
    }
  ]
}

